<mxfile host="app.diagrams.net" agent="Mozilla/5.0 (Windows NT 10.0; Win64; x64; rv:137.0) Gecko/20100101 Firefox/137.0" version="26.1.2">
  <diagram name="Stránka-1" id="FR35m5D3eXrCVvi_Cs-f">
    <mxGraphModel dx="1050" dy="531" grid="1" gridSize="10" guides="1" tooltips="1" connect="1" arrows="1" fold="1" page="1" pageScale="1" pageWidth="827" pageHeight="1169" math="0" shadow="0">
      <root>
        <mxCell id="0" />
        <mxCell id="1" parent="0" />
        <mxCell id="NI6HTg9RiwUAqi7-vGue-1" value="Hra" style="rounded=0;whiteSpace=wrap;html=1;" vertex="1" parent="1">
          <mxGeometry x="460" y="390" width="120" height="80" as="geometry" />
        </mxCell>
        <mxCell id="NI6HTg9RiwUAqi7-vGue-3" value="" style="edgeStyle=orthogonalEdgeStyle;rounded=0;orthogonalLoop=1;jettySize=auto;html=1;" edge="1" parent="1" source="NI6HTg9RiwUAqi7-vGue-2" target="NI6HTg9RiwUAqi7-vGue-1">
          <mxGeometry relative="1" as="geometry" />
        </mxCell>
        <mxCell id="NI6HTg9RiwUAqi7-vGue-2" value="Uložení mapy&lt;br&gt;- tabulka hodnot" style="rounded=0;whiteSpace=wrap;html=1;" vertex="1" parent="1">
          <mxGeometry x="250" y="400" width="120" height="60" as="geometry" />
        </mxCell>
      </root>
    </mxGraphModel>
  </diagram>
</mxfile>
